<svg xmlns="http://www.w3.org/2000/svg" viewBox="0 14.699999809265137 50.5 37.45000076293945" data-asc="1.004"><g fill="#f2a06e"><g fill="#f2a06e" transform="translate(0, 0)"><path d="M49.10 48.55Q45.85 50.80 43 50.80Q40.15 50.80 38.98 49.45Q37.80 48.10 37.80 45.90Q37.80 43.70 40.15 34.58Q42.50 25.45 42.50 23.25Q42.50 20.50 40.55 20.50Q38.60 20.50 35.25 23.40Q35.15 23.80 33.60 29.50Q30.20 42 29.95 49.65Q28 50.40 22.90 50.40L22.25 50.40Q22.25 47.30 24.90 36.10Q27.55 24.90 27.55 23.05Q27.55 20.50 25.50 20.50Q23.30 20.50 19.75 23.60Q19.75 33.80 16.15 42.70Q14.45 46.90 11.73 49.53Q9.00 52.15 6.13 52.15Q3.25 52.15 1.63 50.43Q0 48.70 0 45.63Q0 42.55 2.20 38.38Q4.40 34.20 6.88 31.23Q9.35 28.25 11.95 25.85Q11.95 21.25 10.85 20.30Q10.30 19.85 9.28 19.85Q8.25 19.85 6.28 20.75Q4.30 21.65 2.50 23.20L1.25 21.45Q3 19.30 6.50 17.30Q10.00 15.30 12.73 15.30Q15.45 15.30 17.02 16.73Q18.60 18.15 19.25 20.35Q26.15 14.70 30.15 14.70Q32.15 14.70 33.58 15.95Q35 17.20 35.40 19.70Q41.30 14.70 45.25 14.70Q47.45 14.70 48.98 16.45Q50.50 18.20 50.50 21.18Q50.50 24.15 48.05 33.15Q45.60 42.15 45.60 44.53Q45.60 46.90 47.10 46.90Q47.60 46.90 48.35 46.65L49.10 48.55M5.15 47.40Q7.15 47.40 9.13 42.43Q11.10 37.45 11.80 29.95Q8.60 33.25 6.05 37.78Q3.50 42.30 3.50 44.85Q3.50 47.40 5.15 47.40Z"/></g></g></svg>